<svg xmlns="http://www.w3.org/2000/svg" width="24" height="33" viewBox="0 0 24 33">
  <path id="Icon_material-loop" data-name="Icon material-loop" d="M18,6V1.5l-6,6,6,6V9a9.007,9.007,0,0,1,9,9,8.806,8.806,0,0,1-1.05,4.2l2.19,2.19A11.979,11.979,0,0,0,18,6Zm0,21a9.007,9.007,0,0,1-9-9,8.806,8.806,0,0,1,1.05-4.2L7.86,11.61A11.979,11.979,0,0,0,18,30v4.5l6-6-6-6Z" transform="translate(-6 -1.5)" fill="#fff"/>
</svg>

<svg xmlns="http://www.w3.org/2000/svg" width="33" height="33" viewBox="0 0 33 33">
  <g id="Icon_feather-info" data-name="Icon feather-info" transform="translate(-1.5 -1.5)">
    <path id="Tracé_173" data-name="Tracé 173" d="M33,18A15,15,0,1,1,18,3,15,15,0,0,1,33,18Z" fill="none" stroke="#fff" stroke-linecap="round" stroke-linejoin="round" stroke-width="3"/>
    <path id="Tracé_174" data-name="Tracé 174" d="M18,24V18" fill="none" stroke="#fff" stroke-linecap="round" stroke-linejoin="round" stroke-width="3"/>
    <path id="Tracé_175" data-name="Tracé 175" d="M18,12h0" fill="none" stroke="#fff" stroke-linecap="round" stroke-linejoin="round" stroke-width="3"/>
  </g>
</svg>

<svg xmlns="http://www.w3.org/2000/svg" width="30" height="30" viewBox="0 0 30 30">
  <path id="Icon_feather-message-circle" data-name="Icon feather-message-circle" d="M31.5,17.25a12.57,12.57,0,0,1-1.35,5.7A12.75,12.75,0,0,1,18.75,30a12.57,12.57,0,0,1-5.7-1.35L4.5,31.5l2.85-8.55A12.57,12.57,0,0,1,6,17.25a12.75,12.75,0,0,1,7.05-11.4,12.57,12.57,0,0,1,5.7-1.35h.75a12.72,12.72,0,0,1,12,12Z" transform="translate(-3 -3)" fill="none" stroke="#fff" stroke-linecap="round" stroke-linejoin="round" stroke-width="3"/>
</svg>
