<svg xmlns="http://www.w3.org/2000/svg" width="26.777" height="20.938" viewBox="0 0 26.777 20.938">
  <path id="Icon_material-directions-bike" data-name="Icon material-directions-bike" d="M17.293,6.335a2.15,2.15,0,0,0,2.231-2.043,2.24,2.24,0,0,0-4.463,0A2.15,2.15,0,0,0,17.293,6.335ZM5.579,12.974A5.306,5.306,0,0,0,0,18.081a5.306,5.306,0,0,0,5.579,5.107,5.306,5.306,0,0,0,5.579-5.107A5.306,5.306,0,0,0,5.579,12.974Zm0,8.682a3.8,3.8,0,0,1-3.9-3.575,3.8,3.8,0,0,1,3.9-3.575,3.8,3.8,0,0,1,3.9,3.575A3.8,3.8,0,0,1,5.579,21.656ZM12.05,11.442l2.678-2.451.893.817a8.192,8.192,0,0,0,5.69,2.145V9.91a5.8,5.8,0,0,1-4.017-1.532l-2.12-1.941a2.888,2.888,0,0,0-1.785-.613,1.953,1.953,0,0,0-1.562.613L8.7,9.3a1.937,1.937,0,0,0-.669,1.43,1.653,1.653,0,0,0,.669,1.43l3.57,2.86v5.107H14.5V13.791ZM21.2,12.974a5.306,5.306,0,0,0-5.579,5.107A5.306,5.306,0,0,0,21.2,23.188a5.306,5.306,0,0,0,5.579-5.107A5.306,5.306,0,0,0,21.2,12.974Zm0,8.682a3.8,3.8,0,0,1-3.9-3.575,3.8,3.8,0,0,1,3.9-3.575,3.8,3.8,0,0,1,3.9,3.575A3.8,3.8,0,0,1,21.2,21.656Z" transform="translate(0 -2.25)" fill="#3f3d56"/>
</svg>
